<?xml version="1.0" encoding="utf-8"?>
<!-- Generator: Adobe Illustrator 16.0.4, SVG Export Plug-In . SVG Version: 6.00 Build 0)  -->
<!DOCTYPE svg PUBLIC "-//W3C//DTD SVG 1.1//EN" "http://www.w3.org/Graphics/SVG/1.1/DTD/svg11.dtd">
<svg version="1.1" id="Layer_1" xmlns="http://www.w3.org/2000/svg" xmlns:xlink="http://www.w3.org/1999/xlink" x="0px" y="0px"
	 width="34px" height="36px" viewBox="0 0 34 36" style="enable-background:new 0 0 34 36;" xml:space="preserve">
<path d="M16,0h1v1h-1V0z"/>
<path d="M11,1h2v1h-1v1h-1V1z"/>
<path d="M15,1h1v2h-3V2h2V1z"/>
<path style="fill:#FFFFFF;" d="M16,1h1v1h-1V1z"/>
<path d="M17,1h6v2h1v1h-1v1h-1V2h-5V1z"/>
<path style="fill:#D68205;" d="M12,2h1v1h-1V2z"/>
<path style="fill:#BEBEBE;" d="M16,2h1v1h-1V2z"/>
<path style="fill:#FFFFFF;" d="M17,2h1v1h-1V2z"/>
<path style="fill:#D54505;" d="M18,2h1v1h-1V2z"/>
<path style="fill:#D68205;" d="M19,2h3v1h-3V2z"/>
<path d="M24,2h1v1h-1V2z"/>
<path d="M12,3h1v1h-1V3z"/>
<path style="fill:#D68205;" d="M13,3h1v1h-1V3z"/>
<path style="fill:#D54505;" d="M14,3h1v1h-1V3z"/>
<path style="fill:#B71B04;" d="M15,3h1v1h-1V3z"/>
<path style="fill:#7F7F7F;" d="M16,3h1v1h-1V3z"/>
<path style="fill:#BEBEBE;" d="M17,3h1v1h-1V3z"/>
<path style="fill:#FFFFFF;" d="M18,3h1v1h-1V3z"/>
<path style="fill:#B71B04;" d="M19,3h2v1h-2V3z"/>
<path style="fill:#D54505;" d="M21,3h1v1h-1V3z"/>
<path style="fill:#964302;" d="M24,3h1v1h-1V3z"/>
<path d="M25,3h1v1h-1V3z"/>
<path d="M11,4h1v2h-1v2h-1V5h1V4z"/>
<path style="fill:#D68205;" d="M12,4h1v1h2v1h-2v1h-1v1h-1V6h1V4z"/>
<path d="M13,4h2v1h-2V4z"/>
<path style="fill:#D68205;" d="M15,4h1v1h-1V4z"/>
<path style="fill:#B71B04;" d="M16,4h1v1h-1V4z"/>
<path style="fill:#7F7F7F;" d="M17,4h1v2h-1V4z"/>
<path style="fill:#BEBEBE;" d="M18,4h1v2h-1V4z"/>
<path style="fill:#FFFFFF;" d="M19,4h2v1h1v1h-3V4z"/>
<path style="fill:#B71B04;" d="M21,4h1v1h-1V4z"/>
<path style="fill:#964302;" d="M23,4h1v1h-1V4z"/>
<path style="fill:#D79F43;" d="M24,4h1v1h-1V4z"/>
<path style="fill:#964302;" d="M25,4h1v1h-1V4z"/>
<path d="M26,4h1v1h-1V4z"/>
<path style="fill:#D54505;" d="M15,5h2v1h-1v1h-3V6h2V5z"/>
<path style="fill:#964302;" d="M22,5h1v1h-1V5z"/>
<path style="fill:#D65E05;" d="M23,5h2v1h-2V5z"/>
<path style="fill:#D79F43;" d="M25,5h1v1h-1V5z"/>
<path style="fill:#964302;" d="M26,5h1v1h-1V5z"/>
<path d="M27,5h1v1h-1V5z"/>
<path style="fill:#B71B04;" d="M16,6h2v2h-1v2h-1v1h-1V8h-2V7h3V6z"/>
<path style="fill:#7F7F7F;" d="M18,6h1v1h-1V6z"/>
<path style="fill:#BEBEBE;" d="M19,6h2v1h-2V6z"/>
<path style="fill:#175C00;" d="M21,6h2v1h-2V6z"/>
<path style="fill:#964302;" d="M23,6h3v1h-3V6z"/>
<path style="fill:#D79F43;" d="M26,6h1v1h-1V6z"/>
<path style="fill:#964302;" d="M27,6h1v2h-2V7h1V6z"/>
<path d="M28,6h1v1h2v1h-2v1h-1v1h-1V8h1V6z"/>
<path style="fill:#D54505;" d="M12,7h1v1h-1V7z"/>
<path style="fill:#175C00;" d="M18,7h3v1h-2v1h-1v3h1v2h-1v-1h-2v-3h1V8h1V7z"/>
<path style="fill:#449E01;" d="M21,7h3v1h-3V7z"/>
<path style="fill:#FFFFFF;" d="M24,7h2v1h1v1h-1v2h-1v-1h-1V7z"/>
<path d="M9,8h1v2H9V8z"/>
<path style="fill:#D68205;" d="M10,8h1v2h-1V8z"/>
<path d="M11,8h1v2h-1V8z"/>
<path style="fill:#B71B04;" d="M12,8h1v1h-1V8z"/>
<path style="fill:#D68205;" d="M13,8h2v1h-2V8z"/>
<path style="fill:#449E01;" d="M19,8h1v2h1v1h-1v1h-2V9h1V8z"/>
<path style="fill:#5DC201;" d="M20,8h4v1h-2v1h-2V8z"/>
<path style="fill:#964302;" d="M29,8h2v1h-2V8z"/>
<path d="M31,8h1v1h-1V8z"/>
<path style="fill:#D68205;" d="M12,9h1v1h-1V9z"/>
<path style="fill:#D54505;" d="M13,9h2v2h-2v1h-2v-1h1v-1h1V9z"/>
<path style="fill:#449E01;" d="M22,9h2v1h-2V9z"/>
<path style="fill:#161141;" d="M26,9h1v2h-1V9z"/>
<path style="fill:#964302;" d="M28,9h1v1h-1V9z"/>
<path style="fill:#D65E05;" d="M29,9h2v1h-2V9z"/>
<path style="fill:#964302;" d="M31,9h1v1h-1V9z"/>
<path d="M32,9h1v1h-1V9z"/>
<path d="M10,10h1v3h-1v1H6v-1h3v-1h1V10z"/>
<path style="fill:#D68205;" d="M11,10h1v1h-1V10z"/>
<path style="fill:#964302;" d="M21,10h3v1h-3V10z"/>
<path style="fill:#449E01;" d="M24,10h1v1h-1V10z"/>
<path style="fill:#964302;" d="M27,10h1v1h-1V10z"/>
<path style="fill:#D65E05;" d="M28,10h1v1h-1V10z"/>
<path style="fill:#D79F43;" d="M29,10h2v2h-3v-1h1V10z"/>
<path style="fill:#161141;" d="M31,10h1v1h-1V10z"/>
<path style="fill:#964302;" d="M32,10h1v3h-2v-1h1V10z"/>
<path d="M33,10h1v3h-1V10z"/>
<path style="fill:#B71B04;" d="M13,11h2v1h-2V11z"/>
<path d="M15,11h1v2h-3v-1h2V11z"/>
<path style="fill:#964302;" d="M20,11h1v1h-1V11z"/>
<path style="fill:#D65E05;" d="M21,11h1v1h-1V11z"/>
<path style="fill:#D79F43;" d="M22,11h2v2h-1v-1h-1V11z"/>
<path style="fill:#964302;" d="M24,11h3v1h-3V11z"/>
<path style="fill:#D65E05;" d="M27,11h1v1h-1V11z"/>
<path style="fill:#D65E05;" d="M31,11h1v1h-1V11z"/>
<path style="fill:#FFFFFF;" d="M11,12h1v1h1v2h-1v-1h-1V12z"/>
<path style="fill:#B71B04;" d="M12,12h1v1h-1V12z"/>
<path style="fill:#964302;" d="M19,12h1v3h-1V12z"/>
<path style="fill:#D65E05;" d="M20,12h1v1h1v-1h1v1h1v-1h3v1h1v1h-4v2h2v-1h2v1h-1v1h-4v-1h-2v-1h-1V12z"/>
<path style="fill:#D79F43;" d="M21,12h1v1h-1V12z"/>
<path style="fill:#D79F43;" d="M27,12h1v1h-1V12z"/>
<path style="fill:#D65E05;" d="M28,12h3v1h-3V12z"/>
<path style="fill:#BEBEBE;" d="M10,13h1v1h-1V13z"/>
<path style="fill:#175C00;" d="M13,13h2v1h-2V13z"/>
<path style="fill:#FFFFFF;" d="M15,13h3v1h1v1h1v1h1v3h-1v1h-1v-2h1v-1h-1v-1h-1v-1h-1v-1h-2V13z"/>
<path style="fill:#964302;" d="M28,13h3v1h-3V13z"/>
<path d="M31,13h2v1h-1v1h-1v1h-1v1h-2v-1h1v-1h1v-1h1V13z"/>
<path d="M5,14h1v5H5v1H4v1h1v3H4v1h1v3h1v3H5v-1H4v1H2v1H1v1h1v1h2v1h3v-1h2v-1h1v2h12v-1h-1v-1h-2v-1h-1v-1h1v-2h1v-1h1v-1h1v-1h3
	v1h-2v1h-1v1h-1v1h-1v2h2v1h1v3H9v-1H8v1H3v-1H1v-1H0v-3h1v-1h2v-1h1v-3H3v-3h1v-1H3v-3h1v-1h1V14z"/>
<path style="fill:#BEBEBE;" d="M6,14h1v2H6V14z"/>
<path style="fill:#FFFFFF;" d="M7,14h2v2H7V14z"/>
<path style="fill:#175C00;" d="M9,14h2v1H9V14z"/>
<path style="fill:#BEBEBE;" d="M11,14h1v1h-1V14z"/>
<path style="fill:#449E01;" d="M13,14h2v2h-2V14z"/>
<path style="fill:#175C00;" d="M15,14h2v1h-2V14z"/>
<path style="fill:#964302;" d="M24,14h4v1h-4V14z"/>
<path style="fill:#FFFFFF;" d="M28,14h2v1h-1v1h-1V14z"/>
<path style="fill:#449E01;" d="M9,15h2v1h-1v1H9V15z"/>
<path style="fill:#175C00;" d="M11,15h2v1h-2V15z"/>
<path style="fill:#FFFFFF;" d="M15,15h1v1h-1V15z"/>
<path style="fill:#449E01;" d="M16,15h1v1h-1V15z"/>
<path style="fill:#175C00;" d="M17,15h1v1h-1V15z"/>
<path style="fill:#964302;" d="M20,15h1v1h-1V15z"/>
<path style="fill:#FFFFFF;" d="M24,15h2v1h-2V15z"/>
<path style="fill:#7F7F7F;" d="M6,16h1v1H6V16z"/>
<path style="fill:#BEBEBE;" d="M7,16h1v1H7V16z"/>
<path style="fill:#175C00;" d="M8,16h1v1H8V16z"/>
<path style="fill:#5DC201;" d="M10,16h1v1h-1V16z"/>
<path style="fill:#81E102;" d="M11,16h2v1h1v2h-2v-2h-1V16z"/>
<path style="fill:#5DC201;" d="M13,16h1v1h-1V16z"/>
<path style="fill:#175C00;" d="M14,16h1v1h-1V16z"/>
<path style="fill:#BEBEBE;" d="M15,16h1v1h-1V16z"/>
<path style="fill:#FFFFFF;" d="M16,16h1v1h-1V16z"/>
<path style="fill:#449E01;" d="M17,16h1v3h-1v1h-1v1h-1v3h-1v1h-1v-2h1v-3h1v-2h2V16z"/>
<path style="fill:#175C00;" d="M18,16h1v1h1v1h-1v2h-2v-1h1V16z"/>
<path style="fill:#964302;" d="M21,16h2v1h4v1h-5v2h-1V16z"/>
<path style="fill:#964302;" d="M27,16h1v1h-1V16z"/>
<path style="fill:#175C00;" d="M6,17h2v1H7v1H6V17z"/>
<path style="fill:#449E01;" d="M8,17h1v1H8V17z"/>
<path style="fill:#FFFFFF;" d="M9,17h3v2h-2v-1H9V17z"/>
<path style="fill:#5DC201;" d="M14,17h1v3h-1v1h-3v-1h1v-1h2V17z"/>
<path style="fill:#175C00;" d="M15,17h2v1h-2V17z"/>
<path d="M27,17h1v1h1v1h-1v1h-2v-1h-2v1h2v1h-3v-3h4V17z"/>
<path style="fill:#449E01;" d="M7,18h1v2H7v2h1v1H7v2H6v-6h1V18z"/>
<path style="fill:#175C00;" d="M8,18h1v2H8V18z"/>
<path style="fill:#BEBEBE;" d="M9,18h1v1H9V18z"/>
<path style="fill:#175C00;" d="M22,18h1v2h-1V18z"/>
<path style="fill:#FFFFFF;" d="M5,19h1v2H4v-1h1V19z"/>
<path style="fill:#7F7F7F;" d="M9,19h1v1H9V19z"/>
<path style="fill:#BEBEBE;" d="M10,19h1v1h-1V19z"/>
<path style="fill:#175C00;" d="M11,19h1v1h-1V19z"/>
<path style="fill:#BEBEBE;" d="M20,19h1v1h-1V19z"/>
<path style="fill:#FFFFFF;" d="M28,19h1v1h-1V19z"/>
<path d="M29,19h1v2h1v1h-2V19z"/>
<path style="fill:#5DC201;" d="M7,20h2v1h2v1h-1v1H8v-1H7V20z"/>
<path style="fill:#175C00;" d="M9,20h2v1H9V20z"/>
<path style="fill:#175C00;" d="M16,20h1v2h-1v3h-1v2h-1v1h-2v1h-2v1H7v-1H6v-1H5v-7h1v4h1v1h2v2h1v-1h2v-1h1v-1h1v-1h1v-3h1V20z"/>
<path style="fill:#FFFFFF;" d="M17,20h2v1h-1v2h-1v3h-1v1h-1v-2h1v-3h1V20z"/>
<path style="fill:#BEBEBE;" d="M19,20h1v1h-1V20z"/>
<path style="fill:#7F7F7F;" d="M20,20h1v1h-1V20z"/>
<path style="fill:#161141;" d="M21,20h2v6h-1v-5h-1V20z"/>
<path style="fill:#964302;" d="M26,20h3v2h-1v-1h-2V20z"/>
<path style="fill:#FFFFFF;" d="M11,21h3v2h-2v-1h-1V21z"/>
<path style="fill:#BEBEBE;" d="M18,21h1v1h-1V21z"/>
<path style="fill:#7F7F7F;" d="M19,21h1v1h-1V21z"/>
<path style="fill:#161141;" d="M20,21h1v1h-1V21z"/>
<path style="fill:#7F7F7F;" d="M21,21h1v4h-2v-1h1V21z"/>
<path style="fill:#964302;" d="M23,21h3v1h-2v3h1v1h-2V21z"/>
<path style="fill:#D65E05;" d="M26,21h2v1h-2V21z"/>
<path style="fill:#175C00;" d="M10,22h1v2h-1V22z"/>
<path style="fill:#BEBEBE;" d="M11,22h1v1h-1V22z"/>
<path style="fill:#7F7F7F;" d="M18,22h1v2h-1V22z"/>
<path style="fill:#161141;" d="M19,22h1v1h1v1h-1v1h-1V22z"/>
<path style="fill:#FFFFFF;" d="M20,22h1v1h-1V22z"/>
<path style="fill:#D79F43;" d="M24,22h4v2h-3v-1h-1V22z"/>
<path style="fill:#D65E05;" d="M28,22h1v3h-1v1h-3v-1h-1v-2h1v1h3V22z"/>
<path style="fill:#964302;" d="M29,22h1v3h-1V22z"/>
<path style="fill:#FFFFFF;" d="M30,22h1v1h-1V22z"/>
<path d="M31,22h1v1h-1V22z"/>
<path style="fill:#BEBEBE;" d="M7,23h1v2H7V23z"/>
<path style="fill:#FFFFFF;" d="M8,23h2v2H8V23z"/>
<path style="fill:#7F7F7F;" d="M11,23h1v1h-1V23z"/>
<path style="fill:#BEBEBE;" d="M12,23h1v1h-1V23z"/>
<path style="fill:#BEBEBE;" d="M17,23h1v3h-1V23z"/>
<path d="M30,23h1v3h-1V23z"/>
<path style="fill:#FFFFFF;" d="M4,24h1v1H4V24z"/>
<path style="fill:#449E01;" d="M10,24h1v1h2v1h-1v1h-2v1H9v-2h1V24z"/>
<path style="fill:#175C00;" d="M11,24h2v1h-2V24z"/>
<path style="fill:#964302;" d="M18,24h1v1h-1V24z"/>
<path style="fill:#7F7F7F;" d="M7,25h1v1H7V25z"/>
<path style="fill:#BEBEBE;" d="M8,25h1v1H8V25z"/>
<path style="fill:#175C00;" d="M9,25h1v1H9V25z"/>
<path style="fill:#175C00;" d="M18,25h1v3h-1V25z"/>
<path style="fill:#964302;" d="M19,25h1v1h-1V25z"/>
<path style="fill:#161141;" d="M20,25h1v1h-1V25z"/>
<path style="fill:#FFFFFF;" d="M21,25h1v1h-1V25z"/>
<path style="fill:#964302;" d="M28,25h1v1h-1V25z"/>
<path style="fill:#FFFFFF;" d="M29,25h1v1h-1V25z"/>
<path style="fill:#BEBEBE;" d="M16,26h1v1h-1V26z"/>
<path style="fill:#7F7F7F;" d="M17,26h1v1h-1V26z"/>
<path style="fill:#449E01;" d="M19,26h2v1h-1v1h-1V26z"/>
<path style="fill:#161141;" d="M21,26h1v1h-1V26z"/>
<path style="fill:#964302;" d="M25,26h3v1h-3V26z"/>
<path d="M28,26h2v1h-2V26z"/>
<path style="fill:#FFFFFF;" d="M14,27h1v1h-1V27z"/>
<path style="fill:#BEBEBE;" d="M15,27h1v2h-1v1h-2v-1h1v-1h1V27z"/>
<path style="fill:#7F7F7F;" d="M16,27h1v2h-1V27z"/>
<path style="fill:#964302;" d="M17,27h1v1h1v3h-1v-2h-1V27z"/>
<path style="fill:#175C00;" d="M20,27h1v1h-1V27z"/>
<path d="M25,27h3v1h-3V27z"/>
<path style="fill:#FFFFFF;" d="M12,28h2v1h-1v1h-3v-1h2V28z"/>
<path style="fill:#175C00;" d="M19,28h1v1h-1V28z"/>
<path style="fill:#BEBEBE;" d="M6,29h1v1H6V29z"/>
<path style="fill:#7F7F7F;" d="M15,29h1v1h-1V29z"/>
<path style="fill:#964302;" d="M16,29h1v1h-1V29z"/>
<path style="fill:#D65E05;" d="M17,29h1v2h-1V29z"/>
<path style="fill:#FFFFFF;" d="M4,30h1v1h1v1H4V30z"/>
<path style="fill:#7F7F7F;" d="M6,30h1v1H6V30z"/>
<path style="fill:#BEBEBE;" d="M7,30h6v1H7V30z"/>
<path style="fill:#7F7F7F;" d="M13,30h2v1h-2V30z"/>
<path style="fill:#964302;" d="M15,30h1v1h-1V30z"/>
<path style="fill:#D79F43;" d="M16,30h1v1h-1V30z"/>
<path style="fill:#FFFFFF;" d="M2,31h1v1H2V31z"/>
<path style="fill:#964302;" d="M3,31h1v1H3V31z"/>
<path style="fill:#D65E05;" d="M6,31h1v1h2v1H7v1H4v-1H2v-1h4V31z"/>
<path style="fill:#7F7F7F;" d="M7,31h6v1H7V31z"/>
<path style="fill:#964302;" d="M13,31h2v1h-2V31z"/>
<path style="fill:#D79F43;" d="M15,31h1v2h-2v-1h1V31z"/>
<path style="fill:#D65E05;" d="M16,31h1v1h-1V31z"/>
<path style="fill:#964302;" d="M17,31h1v1h1v1h-3v-1h1V31z"/>
<path style="fill:#964302;" d="M1,32h1v1H1V32z"/>
<path style="fill:#964302;" d="M9,32h4v2h4v1h-7v-2H9V32z"/>
<path style="fill:#D65E05;" d="M13,32h1v1h2v1h-3V32z"/>
<path style="fill:#964302;" d="M2,33h2v1H2V33z"/>
<path style="fill:#964302;" d="M7,33h2v1H7V33z"/>
<path style="fill:#D79F43;" d="M16,33h1v1h-1V33z"/>
<path style="fill:#D65E05;" d="M17,33h2v2h-2V33z"/>
<path style="fill:#FFFFFF;" d="M19,33h2v1h1v1h-3V33z"/>
<path style="fill:#964302;" d="M4,34h3v1H4V34z"/>
</svg>
