<?xml version="1.0" encoding="utf-8"?>
<!-- Generator: Adobe Illustrator 16.0.0, SVG Export Plug-In . SVG Version: 6.00 Build 0)  -->
<!DOCTYPE svg PUBLIC "-//W3C//DTD SVG 1.1//EN" "http://www.w3.org/Graphics/SVG/1.1/DTD/svg11.dtd">
<svg version="1.1" id="Layer_1" xmlns="http://www.w3.org/2000/svg" xmlns:xlink="http://www.w3.org/1999/xlink" x="0px" y="0px"
	 width="694.333px" height="122.667px" viewBox="60.5 56 694.333 122.667" enable-background="new 60.5 56 694.333 122.667"
	 xml:space="preserve">
<g transform="translate(0.000000,241.000000) scale(0.100000,-0.100000)">
	<path d="M1442.998,1793.999c-27.998-6.997-67.998-22.998-88.999-35c-21.997-11.997-57.998-32.998-81.997-46.997
		c-56.001-32.002-151.001-41.001-175-17.002c-22.002,22.002-21.001,32.002,3.999,46.001c13.999,6.997,42.998,8.999,80,5
		c47.998-6.001,58.999-3.999,58.999,7.998c0,18.003-51.001,36.001-87.002,30c-80-11.997-91.997-16.001-101.997-27.998
		c-23.999-28.999-21.001-58.003,8.999-86.001c66.001-62.002,181.001-61.001,313.999,3.999
		c111.001,53.999,163.999,68.999,237.002,68.003c65,0,98.999-14.004,98.999-41.001c0-42.002-127.998-58.003-168.999-20
		c-21.001,18.999-23.003,20-46.001,5c-30-18.999-31.001-28.003-7.002-48.003c24.004-21.997,53.003-28.999,116.001-30
		c107.002-1.997,186.001,36.001,186.001,91.001C1790,1787.002,1610,1837.002,1442.998,1793.999z"/>
	<path d="M2735,1731.001C2577.998,1657.002,2476.001,1440,2476.001,1180c0-95.996,2.998-122.998,21.001-160.996
		C2526.001,955,2573.999,920.996,2655,907.002C2762.002,889.004,2870,920,2957.998,995c40,35,41.001,35,47.002,12.998
		c10-30.996,33.999-57.002,70-75.996c40.996-21.006,140-20,187.998,2.002c85,40.996,149.004,145,172.002,277.998
		c5,32.998,10,38.999,42.998,47.998c20,5,40,10,42.998,10c7.002,0,3.008-23.999-35.996-207.002l-27.998-130.996l-61.006-22.998
		c-67.998-24.004-125-74.004-126.992-111.006c-5-78.994,6.992-110,53.994-137.998c54.004-32.998,157.002-20,207.998,25.996
		C3545,699.004,3549.003,699.004,3560,685c35.996-44.004,127.998-59.004,192.998-30.996c65,26.992,112.002,105.996,132.998,222.998
		c3.008,15,10,47.998,15,72.998c6.006,25,30,140.996,55,257.998C3980,1326.001,4002.001,1425,4005,1428.999
		c2.002,5,25.996,7.002,52.002,6.001c27.002-1.001,50.996,2.998,55,8.999c17.998,26.001,7.002,35-46.006,38.003l-53.994,2.998
		l17.998,68.999c17.002,68.003,44.004,106.001,75,106.001c22.002,0,47.002-31.001,42.002-51.001
		c-4.004-15,0.996-18.999,23.994-18.999c29.004,0,31.006,2.002,32.002,42.998C4204.003,1700,4140.996,1760,4070,1760
		c-42.998-1.001-105-22.002-130-45c-17.998-17.002-20.996-16.001-50,7.998c-82.998,70-215,33.003-270.996-75
		c-10-20-31.006-97.998-46.006-173.999c-27.998-135-27.998-136.997-60-151.001c-35-13.999-73.994-16.997-70.996-5
		c5.996,20-15,98.003-32.002,122.002c-27.998,38.999-70,53.999-139.004,47.002c-70-6.001-110-25-160.996-78.003
		c-52.998-55-87.998-128.999-108.999-231.997c-13.003-67.002-22.002-90-41.001-105c-47.002-36.006-92.002-54.004-150-57.002
		c-47.998-2.998-63.999,0-92.002,17.998c-47.998,32.998-60.996,81.006-55,197.002c13.003,230,114.004,448.999,218.003,472.998
		c32.998,8.003,66.001-15,73.999-50.996c6.001-29.004-16.001-95-35-107.002c-21.001-12.998,12.002-35,50-35
		c57.998,0,82.998,37.002,77.998,112.998c-2.998,45-10,63.003-31.997,86.001C2960,1767.998,2832.998,1777.998,2735,1731.001z
		 M3854.003,1653.999c18.994-6.997,20-40,5-116.997L3847.001,1480h-54.004h-55l7.002,27.998c10.996,41.001,12.998,55,14.004,75
		c0.996,20,52.998,77.002,68.994,77.002C3834.003,1660,3845,1657.002,3854.003,1653.999z M3827.001,1422.998
		c2.002-5.996-2.998-46.997-12.002-90c-9.004-42.998-19.004-86.997-20.996-98.999c-17.002-88.003-52.002-244.995-55-248.003
		C3737.001,982.998,3715,979.004,3690,975c-24.004-4.004-47.998-9.004-52.998-12.002c-4.004-2.002-6.006,6.006-2.998,19.004
		c2.998,12.002,16.992,78.994,30.996,147.998c14.004,69.004,32.998,152.998,40.996,187.002
		c7.002,33.999,14.004,70.996,14.004,81.997s7.002,23.999,15.996,28.999C3757.998,1440,3822.998,1436.001,3827.001,1422.998z
		 M3340.996,1393.999c7.002-20,6.006-31.001-5-42.998c-25.996-28.003-30-70-10-92.002c16.006-17.998,16.006-23.999,4.004-71.997
		c-15-62.002-40-112.998-70-144.004c-25-27.998-75-30.996-87.998-5c-25,50-2.998,189.004,45.996,290
		C3260,1415,3320,1447.002,3340.996,1393.999z M3730,937.998c-0.996-7.002-7.002-42.002-14.004-77.002
		c-21.992-98.994-62.998-138.994-115-111.992C3582.001,760,3582.001,762.998,3595,800c7.998,22.002,14.004,42.998,14.004,45
		c-1.006,2.998,1.992,22.998,5.996,45c5,30,12.002,40.996,27.998,45c12.002,2.002,31.006,5.996,42.002,7.998
		C3722.001,950.996,3730,950,3730,937.998z"/>
	<path d="M5225,1743.999c-50.996-17.998-110-66.001-130.996-106.001c-22.002-41.997-20-116.997,3.994-163.999
		c11.006-21.001,52.998-75,92.998-118.999c39.004-43.999,81.006-100,92.002-125c27.002-60.996,27.002-137.002-2.002-182.998
		c-45-72.998-160-76.006-196.992-6.006c-35,69.004,5.996,141.006,88.994,153.008c25,2.998,30,12.998,17.002,35.996
		c-17.002,32.002-64.004,47.998-112.002,40c-105-20-162.002-120.996-132.998-234.004c24.004-91.992,105.996-138.994,237.002-136.992
		c197.998,2.998,318.994,121.992,305.996,301.997c-7.002,86.997-32.002,130-137.998,233.999
		c-45,43.999-87.998,92.002-95.996,107.002c-27.002,51.997-13.008,126.997,26.992,148.999c34.004,17.998,96.006,15,119.004-6.001
		c29.004-26.001,27.002-86.001-5-123.999c-25-28.999-25-30-5.996-40c61.992-33.999,130.996,22.998,130.996,106.001
		c0,46.997-29.004,90-75.996,111.997C5392.001,1763.999,5287.001,1766.001,5225,1743.999z"/>
	<path d="M785,1702.998c-72.998-37.998-83.999-75-35-115.996c40-34.004,115-61.001,240-86.001c147.998-28.999,227.002-35,455-33.999
		c283.999,0.996,488.999,32.998,613.999,95c77.002,38.999,85,93.999,18.999,132.998c-28.999,17.002-30,17.002-23.999-2.002
		c8.999-28.999-1.997-50-38.999-72.998c-36.001-22.002-157.002-56.001-232.002-65c-26.997-2.998-58.999-7.998-72.998-11.001
		c-52.998-12.998-475-11.001-575,2.002c-167.002,21.997-282.002,58.999-315,101.997c-18.999,23.003-18.999,27.002-5,49.004
		C832.998,1723.999,826.001,1725,785,1702.998z"/>
	<path d="M6544.003,1710c-11.006-3.999-28.008-23.999-38.008-43.999c-15-31.001-15-38.999-1.992-70c25-58.999,92.998-75,140-33.003
		C6722.001,1631.001,6640.996,1748.999,6544.003,1710z"/>
	<path d="M7397.998,1647.002c-65.996-9.004-65.996-9.004-73.994-46.001c-4.004-20-8.008-38.003-9.004-41.001
		c0-2.998-4.004-22.002-7.998-42.002c-6.006-27.998-12.998-37.998-26.006-37.998c-11.992,0-20-8.999-23.994-26.001
		c-2.998-17.998-1.006-23.999,8.994-20c7.002,3.003,15,2.002,18.008-1.997c1.992-4.004-14.004-86.001-35-182.002
		c-42.002-192.998-45-225-26.006-272.998c17.998-41.006,37.002-57.002,80-64.004c47.998-7.002,101.006,20,121.006,62.002
		c20.996,42.998,20.996,42.998-11.006,47.002c-22.002,2.002-28.994,8.994-30.996,30c-2.998,23.994,62.002,360,72.998,377.998
		c2.002,3.999,17.998,6.001,35,5c15.996-1.001,30,2.002,30,6.001s2.998,13.999,5.996,22.998c5,13.003-0.996,16.001-28.994,16.001
		h-35l18.994,82.998c10,45,19.004,85,19.004,89.004C7500,1658.999,7494.003,1658.999,7397.998,1647.002z"/>
	<path d="M6852.998,1522.002c-57.002-2.002-72.998-6.001-77.002-20c-3.994-13.003-38.994-174.004-80.996-374.004
		c-14.004-67.998-77.998-118.994-122.002-98.994c-30,13.994-30,18.994,26.006,278.994L6635.996,1480H6555h-82.002l-27.002-122.002
		c-70-327.002-71.992-342.002-31.992-402.998c30.996-47.998,126.992-52.002,203.994-10c22.998,12.998,42.002,20.996,42.002,17.002
		c0-4.004-15.996-77.002-34.004-162.002c-18.994-85-32.998-155.996-30.996-157.998c2.002-2.998,74.004,12.002,135.996,27.998
		c32.002,9.004,37.002,15,43.008,49.004c2.998,21.992,15,80,26.992,128.994l20,90L6855,924.004
		c74.004-31.006,182.002,0,239.004,66.992C7200,1115.996,7225,1405,7135.996,1462.998c-36.992,24.004-95.996,27.002-153.994,8.003
		L6930,1452.998l5.996,32.002c3.008,17.998,2.002,33.999-2.998,36.001C6929.003,1522.998,6892.998,1523.999,6852.998,1522.002z
		 M7029.003,1367.002c11.992-31.001,5-140-14.004-202.998c-22.002-75-50-120-89.004-138.008
		c-77.998-36.992-90-17.998-63.994,104.004c10.996,52.002,22.002,108.999,23.994,125c15,88.999,40,132.998,84.004,147.002
		C6990.996,1408.999,7020,1392.002,7029.003,1367.002z"/>
	<path d="M733.999,1482.998c3.003-22.998,15-75.996,27.002-116.997l21.997-75l-50.996-55c-110-121.001-110-276.001,0-371.001
		c65-55,173.999-67.002,243.999-27.002c16.997,10,16.001,11.006-8.999,12.002c-54.004,0-138.003,57.998-178.003,120
		c-21.001,32.002-36.997,105.996-31.997,144.004c5,32.998,40,105.996,50.996,105.996c4.004,0,17.002-22.002,29.004-47.998
		c12.998-27.002,56.997-97.998,100-157.998c68.999-97.002,121.997-197.002,122.998-231.006c0-25,77.998-73.994,152.998-97.998
		c66.001-20.996,97.002-25,209.004-25c241.997,0,355,52.002,390.996,180c9.004,30,36.001,82.002,60,115
		c123.003,170,147.002,210.996,190,330c14.004,38.999,32.002,102.002,42.002,140c8.999,38.999,17.998,76.001,20,82.002
		c2.998,6.997-12.002,1.997-32.998-12.002c-54.004-36.001-140-63.999-248.003-81.001c-20-2.998-46.001-7.998-57.998-10
		C1690,1385,1293.999,1377.002,1155,1392.998c-198.999,22.002-348.999,63.003-403.999,111.001L727.998,1525L733.999,1482.998z"/>
	<path d="M4267.001,1476.001c-82.002-30-142.002-98.999-182.998-212.002c-47.002-128.999-42.002-246.997,13.994-306.997
		c71.006-76.006,236.006-55,342.998,43.994c23.008,21.006,44.004,39.004,46.006,39.004c0.996,0,2.998-9.004,2.998-20
		c0-10,17.002-37.002,37.998-59.004c31.006-32.998,45-40,92.998-45.996c100-12.002,175,22.998,210,99.004
		c28.008,60.996,24.004,70-17.998,41.992c-95-61.992-162.998-38.994-162.998,54.004c0,25.996,5,30,42.998,40
		c126.006,30.996,202.002,107.002,215,212.998c9.004,81.001-37.002,127.002-125,127.002
		c-153.994-2.002-267.002-131.001-297.998-342.002c-10.996-73.994-95.996-137.998-182.998-137.998
		c-57.002,0-82.002,25.996-82.002,85c0,40.996,2.002,45,27.998,50.996c102.998,23.008,172.998,72.002,207.998,148.003
		c38.008,82.002,28.008,153.003-26.992,182.002C4394.003,1492.998,4317.001,1492.998,4267.001,1476.001z M4374.003,1423.999
		c36.992-13.999,5-133.999-47.002-176.997c-27.998-22.002-86.006-51.006-92.002-45c-15.996,15.996,57.002,180,92.998,207.998
		C4355.996,1432.998,4352.998,1432.002,4374.003,1423.999z M4815,1372.998c-0.996-63.999-39.004-122.998-99.004-152.998
		c-53.994-25-55.996-25-50,6.001c12.002,65,77.002,185,106.006,196.997C4805,1437.002,4815,1425,4815,1372.998z"/>
	<path d="M5755,1481.001c-100-32.002-177.998-135-210.996-277.002c-30-133.003-5-241.997,65-273.999
		c92.998-42.002,233.994-7.998,315.996,77.002l27.002,27.998l-6.006-40c-3.994-22.002-8.994-47.998-11.992-57.002
		c-5-15.996,2.998-17.998,78.994-17.998h84.004l37.002,182.998c47.998,234.004,51.992,245,90,268.003
		c16.992,10,33.994,18.999,37.998,18.999c2.998,0,15-17.002,25-37.002c15.996-33.999,22.002-37.998,52.998-35.996
		c95.996,3.999,92.002,162.998-2.998,162.998c-29.004,0-79.004-20-112.998-45c-20-15-20-13.999-16.006,15l4.004,30h-80
		c-67.998,0-81.006-2.998-86.006-17.002c-2.998-10-20-90-37.998-177.998c-28.994-142.998-35.996-164.004-63.994-195
		c-66.006-72.998-181.006-102.998-224.004-60c-52.002,52.002,5,305,84.004,380c40,37.002,61.992,17.998,58.994-48.999
		c-0.996-28.003,1.006-51.001,5-52.002c4.004,0,15-1.997,24.004-3.999c30.996-6.001,60.996,27.998,62.998,70
		c2.998,52.002-10.996,81.001-50,100C5872.001,1490,5792.001,1493.999,5755,1481.001z"/>
</g>
</svg>
