<?xml version="1.0" encoding="utf-8"?>
<!-- Generator: Adobe Illustrator 16.0.4, SVG Export Plug-In . SVG Version: 6.00 Build 0)  -->
<!DOCTYPE svg PUBLIC "-//W3C//DTD SVG 1.1//EN" "http://www.w3.org/Graphics/SVG/1.1/DTD/svg11.dtd">
<svg version="1.1" id="Layer_1" xmlns="http://www.w3.org/2000/svg" xmlns:xlink="http://www.w3.org/1999/xlink" x="0px" y="0px"
	 width="15px" height="30px" viewBox="0 0 15 30" style="enable-background:new 0 0 15 30;" xml:space="preserve">
<path style="fill:#044D15;" d="M7,0h4v1H7V0z"/>
<path style="fill:#044D15;" d="M5,1h2v1H5V1z"/>
<path style="fill:#32FB74;" d="M7,1h1v1H7V1z"/>
<path style="fill:#F1D86C;" d="M8,1h1v2H8V1z"/>
<path style="fill:#32FB74;" d="M9,1h2v1H9V1z"/>
<path style="fill:#044D15;" d="M11,1h1v2h-1V1z"/>
<path style="fill:#044D15;" d="M4,2h1v1H4V2z"/>
<path style="fill:#32FB74;" d="M5,2h2v1H5V2z"/>
<path style="fill:#CF9F3A;" d="M7,2h1v1H7V2z"/>
<path style="fill:#F7F7F7;" d="M9,2h1v1H9V2z"/>
<path style="fill:#1CC153;" d="M10,2h1v1h-1V2z"/>
<path style="fill:#044D15;" d="M3,3h1v1H3V3z"/>
<path style="fill:#32FB74;" d="M4,3h1v1H4V3z"/>
<path style="fill:#1CC153;" d="M5,3h2v1H5V3z"/>
<path d="M7,3h7v1h1v2h-1v1h-2V6H6v1H5v2h1v1H5v1H4v-1H3V7h1V5h1V4h2V3z"/>
<path style="fill:#044D15;" d="M2,4h1v2H2V4z"/>
<path style="fill:#32FB74;" d="M3,4h1v1H3V4z"/>
<path style="fill:#1CC153;" d="M4,4h1v1H4V4z"/>
<path style="fill:#1CC153;" d="M3,5h1v2H3v1H1V7h1V6h1V5z"/>
<path style="fill:#044D15;" d="M1,6h1v1H1V6z"/>
<path style="fill:#EF9022;" d="M6,6h1v2H6v1H5V7h1V6z"/>
<path style="fill:#F7F7F7;" d="M7,6h2v1H8v2H7V6z"/>
<path style="fill:#F2C894;" d="M9,6h1v3H9V6z"/>
<path style="fill:#F7F7F7;" d="M10,6h2v3h-1V7h-1V6z"/>
<path style="fill:#044D15;" d="M0,7h1v2H0V7z"/>
<path d="M8,7h1v2H8V7z"/>
<path d="M10,7h1v2h-1V7z"/>
<path style="fill:#EF9022;" d="M1,8h1v1H1V8z"/>
<path style="fill:#F2C894;" d="M2,8h1v2H2V8z"/>
<path style="fill:#F2C894;" d="M6,8h1v1h1v2H7v1h1v1h3v1h-1v1H9v-1H7v-1H6v-1H5v-2h1V8z"/>
<path style="fill:#82560C;" d="M12,8h2v1h-2V8z"/>
<path style="fill:#EF9022;" d="M0,9h1v2H0V9z"/>
<path style="fill:#82560C;" d="M1,9h1v2H1V9z"/>
<path style="fill:#EF9022;" d="M8,9h2v1h4v1H9v-1H8V9z"/>
<path style="fill:#F2C894;" d="M10,9h4v1h-4V9z"/>
<path style="fill:#82560C;" d="M14,9h1v2h-1V9z"/>
<path style="fill:#EF9022;" d="M2,10h2v1h1v1H1v-1h1V10z"/>
<path style="fill:#82560C;" d="M8,10h1v1H8V10z"/>
<path d="M7,11h2v1h4v1H8v-1H7V11z"/>
<path style="fill:#82560C;" d="M9,11h5v1H9V11z"/>
<path d="M3,12h1v1H3V12z"/>
<path style="fill:#82560C;" d="M4,12h1v1H4V12z"/>
<path style="fill:#EF9022;" d="M5,12h1v1H5V12z"/>
<path d="M4,13h1v2H4V13z"/>
<path style="fill:#82560C;" d="M5,13h1v2H5V13z"/>
<path style="fill:#EF9022;" d="M6,13h1v1h2v2H7v-1H6V13z"/>
<path style="fill:#82560C;" d="M11,13h1v1h-1V13z"/>
<path style="fill:#82560C;" d="M10,14h1v1h-1V14z"/>
<path style="fill:#044D15;" d="M4,15h2v1H4V15z"/>
<path style="fill:#9752F6;" d="M6,15h1v1h1v1h1v1h1v-1h1v4h1v3h-1v2H9v-4H8v-1h2v-2H8v-1H7v-1H6V15z"/>
<path style="fill:#82560C;" d="M9,15h1v1H9V15z"/>
<path style="fill:#044D15;" d="M3,16h1v1H3V16z"/>
<path style="fill:#32FB74;" d="M4,16h2v1h1v1H6v2H4V16z"/>
<path style="fill:#82560C;" d="M8,16h1v1H8V16z"/>
<path style="fill:#9752F6;" d="M9,16h1v1H9V16z"/>
<path style="fill:#82560C;" d="M10,16h1v1h-1V16z"/>
<path style="fill:#044D15;" d="M2,17h1v3h3v-2h1v3h1v3H7v-2H6v-1H4v1H2V17z"/>
<path style="fill:#1CC153;" d="M3,17h1v3H3V17z"/>
<path style="fill:#32FB74;" d="M9,17h1v1H9V17z"/>
<path style="fill:#82560C;" d="M11,17h1v2h-1V17z"/>
<path style="fill:#32FB74;" d="M7,18h1v1H7V18z"/>
<path style="fill:#9752F6;" d="M7,19h1v2H7V19z"/>
<path style="fill:#F7F7F7;" d="M8,19h2v2H8V19z"/>
<path style="fill:#F7F7F7;" d="M11,19h1v2h-1V19z"/>
<path style="fill:#82560C;" d="M12,19h1v3h-1V19z"/>
<path style="fill:#F7F7F7;" d="M4,21h2v1h1v2H6v1H4v-1H3v-2h1V21z"/>
<path style="fill:#3C0074;" d="M2,22h1v2h1v1h1v1H3v-1H2V22z"/>
<path style="fill:#7500F6;" d="M8,22h1v4H6v-1h1v-1h1V22z"/>
<path style="fill:#3C0074;" d="M12,22h1v2h-1V22z"/>
<path style="fill:#044D15;" d="M6,24h1v1H6V24z"/>
<path style="fill:#3C0074;" d="M11,24h1v2h-1V24z"/>
<path d="M5,25h1v4h5v-1h1v2H5V25z"/>
<path style="fill:#82560C;" d="M6,26h2v1h2v2H6V26z"/>
<path style="fill:#3C0074;" d="M8,26h3v1H8V26z"/>
<path d="M10,27h1v1h-1V27z"/>
<path style="fill:#F1D86C;" d="M10,28h1v1h-1V28z"/>
</svg>
