<?xml version="1.0" encoding="utf-8"?>
<!-- Generator: Adobe Illustrator 16.0.4, SVG Export Plug-In . SVG Version: 6.00 Build 0)  -->
<!DOCTYPE svg PUBLIC "-//W3C//DTD SVG 1.1//EN" "http://www.w3.org/Graphics/SVG/1.1/DTD/svg11.dtd">
<svg version="1.1" id="Layer_1" xmlns="http://www.w3.org/2000/svg" xmlns:xlink="http://www.w3.org/1999/xlink" x="0px" y="0px"
	 width="15px" height="28px" viewBox="0 0 15 28" style="enable-background:new 0 0 15 28;" xml:space="preserve">
<path style="fill:#4A0101;" d="M7,0h5v1H7V0z"/>
<path style="fill:#4A0101;" d="M5,1h2v1H5V1z"/>
<path style="fill:#EF426C;" d="M7,1h2v1H7V1z"/>
<path style="fill:#F1D86C;" d="M9,1h1v2H9V1z"/>
<path style="fill:#EF426C;" d="M10,1h2v1h-2V1z"/>
<path style="fill:#4A0101;" d="M12,1h1v2h-1V1z"/>
<path style="fill:#4A0101;" d="M4,2h1v1H4V2z"/>
<path style="fill:#EF426C;" d="M5,2h2v1H5V2z"/>
<path style="fill:#A61B5A;" d="M7,2h1v1H7V2z"/>
<path style="fill:#CF9F3A;" d="M8,2h1v1H8V2z"/>
<path style="fill:#F7F7F7;" d="M10,2h1v1h-1V2z"/>
<path style="fill:#A61B5A;" d="M11,2h1v1h-1V2z"/>
<path style="fill:#4A0101;" d="M3,3h1v1H3V3z"/>
<path style="fill:#EF426C;" d="M4,3h1v1H4V3z"/>
<path style="fill:#A61B5A;" d="M5,3h2v1H5V3z"/>
<path d="M7,3h7v1h1v2h-1v1h-2V6H6v1H5v2h1v1H5v1H4v-1H3V7h1V5h1V4h2V3z"/>
<path style="fill:#4A0101;" d="M2,4h1v1H2V4z"/>
<path style="fill:#EF426C;" d="M3,4h1v1H3V4z"/>
<path style="fill:#A61B5A;" d="M4,4h1v1H4V4z"/>
<path style="fill:#4A0101;" d="M1,5h1v2H1V5z"/>
<path style="fill:#A61B5A;" d="M2,5h2v2H2V5z"/>
<path style="fill:#EF6E63;" d="M6,6h1v2H6v1H5V7h1V6z"/>
<path style="fill:#F7F7F7;" d="M7,6h2v1H8v2H7V6z"/>
<path style="fill:#EF6E63;" d="M9,6h1v1H9V6z"/>
<path style="fill:#F7F7F7;" d="M10,6h2v3h-1V7h-1V6z"/>
<path style="fill:#EF6E63;" d="M1,7h1v1H1V7z"/>
<path style="fill:#F3CEBF;" d="M2,7h1v2H2V7z"/>
<path d="M8,7h1v2H8V7z"/>
<path style="fill:#F3CEBF;" d="M9,7h1v2H9V7z"/>
<path d="M10,7h1v2h-1V7z"/>
<path style="fill:#EF6E63;" d="M0,8h1v2H0V8z"/>
<path style="fill:#82550E;" d="M1,8h1v2H1V8z"/>
<path style="fill:#F3CEBF;" d="M6,8h1v1h1v1H7v1H5v-1h1V8z"/>
<path style="fill:#F3CEBF;" d="M12,8h1v2h-3V9h2V8z"/>
<path style="fill:#82550E;" d="M13,8h1v3h-1V8z"/>
<path style="fill:#EF6E63;" d="M2,9h1v1h1v1h2v2h6v1H5v-1H4v-1H3v-1H1v-1h1V9z"/>
<path style="fill:#EF6E63;" d="M8,9h2v1h3v1H9v-1H8V9z"/>
<path d="M7,10h1v1h7v1h-1v1H8v-1H6v-1h1V10z"/>
<path style="fill:#82550E;" d="M8,10h1v1H8V10z"/>
<path d="M1,11h2v1h1v2H3v-1H2v-1H1V11z"/>
<path style="fill:#F3CEBF;" d="M6,12h2v1H6V12z"/>
<path style="fill:#82550E;" d="M4,13h1v1H4V13z"/>
<path style="fill:#82550E;" d="M12,13h1v1h-1V13z"/>
<path style="fill:#4A0101;" d="M4,14h1v1H4V14z"/>
<path style="fill:#A61B5A;" d="M5,14h2v1H5V14z"/>
<path style="fill:#4A0101;" d="M7,14h2v1H7V14z"/>
<path style="fill:#82550E;" d="M9,14h3v1H9V14z"/>
<path style="fill:#4A0101;" d="M3,15h1v1H3V15z"/>
<path style="fill:#EF426C;" d="M4,15h2v1h1v3H6v-1H5v-1H4V15z"/>
<path style="fill:#4A0101;" d="M6,15h1v1H6V15z"/>
<path style="fill:#A61B5A;" d="M7,15h1v1H7V15z"/>
<path style="fill:#82550E;" d="M8,15h1v1H8V15z"/>
<path style="fill:#F7F7F7;" d="M9,15h3v1h1v2h-1v1H9v-1H8v-2h1V15z"/>
<path style="fill:#82550E;" d="M12,15h1v1h-1V15z"/>
<path style="fill:#4A0101;" d="M2,16h1v2H2V16z"/>
<path style="fill:#A61B5A;" d="M3,16h1v1h1v1h1v1h1v1H5v-1H4v-1H3V16z"/>
<path style="fill:#82550E;" d="M7,16h1v2H7V16z"/>
<path style="fill:#82550E;" d="M13,16h1v2h-1V16z"/>
<path style="fill:#211985;" d="M2,18h1v1h1v1H3v2H2V18z"/>
<path style="fill:#4A0101;" d="M3,18h1v1H3V18z"/>
<path style="fill:#A61B5A;" d="M7,18h1v1H7V18z"/>
<path style="fill:#82550E;" d="M8,18h1v1H8V18z"/>
<path style="fill:#82550E;" d="M12,18h1v1h-1V18z"/>
<path style="fill:#4A0101;" d="M4,19h1v1H4V19z"/>
<path style="fill:#4A0101;" d="M7,19h2v1H8v1H5v-1h2V19z"/>
<path style="fill:#82550E;" d="M9,19h3v1H9V19z"/>
<path style="fill:#F7F7F7;" d="M12,19h1v1h-1V19z"/>
<path style="fill:#477C93;" d="M3,20h1v1h2v1h1v1h2v1H4v-2H3V20z"/>
<path style="fill:#211985;" d="M4,20h1v1H4V20z"/>
<path style="fill:#85D5C5;" d="M8,20h3v2H9v1H7v-1H6v-1h2V20z"/>
<path style="fill:#477C93;" d="M11,20h1v2h-1V20z"/>
<path style="fill:#211985;" d="M12,20h1v2h-1V20z"/>
<path style="fill:#211985;" d="M3,22h1v2H3V22z"/>
<path style="fill:#211985;" d="M9,22h1v2h1v1H4v-1h5V22z"/>
<path style="fill:#477C93;" d="M10,22h1v2h-1V22z"/>
<path style="fill:#211985;" d="M11,22h1v2h-1V22z"/>
<path style="fill:#82550E;" d="M4,25h5v2H5v-1H4V25z"/>
<path d="M9,25h1v1H9V25z"/>
<path style="fill:#82550E;" d="M10,25h1v1h-1V25z"/>
<path d="M11,25h1v1h-1V25z"/>
<path d="M4,26h1v1h5v-1h1v1h1v-1h1v2H4V26z"/>
<path style="fill:#F1D86C;" d="M9,26h1v1H9V26z"/>
<path style="fill:#F1D86C;" d="M11,26h1v1h-1V26z"/>
</svg>
